# xmcd
#
# Track frame offsets:
#	150
#	20074
#	36076
#	54223
#	82828
#	101933
#	123782
#	133466
#	146030
#	165332
#	179996
#	199236
#	215328
#	234743
#	248610
#	258111
#	270681
#	287884
#	305293
#	317580
#	335212
#	349878
#
# Disc length: 4796 seconds
#
# Revision: 4
# Processed by: cddbd v1.5.2PL0 Copyright (c) Steve Scherf et al.
# Submitted via: audiograbber 1.83.01
#
DISCID=5112ba16
DTITLE=Sampler2 - CD-NH Roswitha Geburtstag 50 #2
DYEAR=2008
DGENRE=
TTITLE0=Cabaret - Liza Minelli - Willkommen
TTITLE1=Cabaret - Liza Minelli - Mein Herr
TTITLE2=Ram Jam - Black Betty
TTITLE3=Golden Earring - Radar Love
TTITLE4=Humble Pie - Natural Born Boogie
TTITLE5=Love Sculpture - Sabre Dance
TTITLE6=Fats domino - Sally was a good old Girl
TTITLE7=The Hollies - Jennifer Eccles
TTITLE8=Roberta Flack - The First Time ever I Saw Your Face
TTITLE9=Cabaret - Liza Minelli - Cabaret
TTITLE10=Isaac Hayes and David Porter - Ain't That Loving You
TTITLE11=Van Morrison - Bright Side of The Road
TTITLE12=Jr. Walker - Back Street Boogie
TTITLE13=The Nevilles - Tell It Like It Is
TTITLE14=The Nevilles - Over You
TTITLE15=The Nevilles - That Rock'n'Roll Beat
TTITLE16=Barbara Lynn - Movin' On A Groove
TTITLE17=Barbara Lynn - What I Need Is Love
TTITLE18=Spencer Davoies Group - Keep On Running
TTITLE19=Detroit Spinners - Working My Way Back To You
TTITLE20=Gloria Gaynor - I will survive
TTITLE21=Fats Domino - Fats Domino - I'm Walking
EXTD=
EXTT0=
EXTT1=
EXTT2=
EXTT3=
EXTT4=
EXTT5=
EXTT6=
EXTT7=
EXTT8=
EXTT9=
EXTT10=
EXTT11=
EXTT12=
EXTT13=
EXTT14=
EXTT15=
EXTT16=
EXTT17=
EXTT18=
EXTT19=
EXTT20=
EXTT21=
PLAYORDER=
